<svg xmlns="http://www.w3.org/2000/svg" version="1.1" xmlns:xlink="http://www.w3.org/1999/xlink" width="512" height="512" x="0" y="0" viewBox="0 0 64 64" style="enable-background:new 0 0 512 512" xml:space="preserve" class=""><g><path fill="#2d4d83" d="M54 45.683A12 12 0 0 1 62 57v5H2v-5a12 12 0 0 1 8-11.317" opacity="1" data-original="#2d4d83" class=""></path><path fill="#fadfb2" d="M24.15 37A27.244 27.244 0 0 1 20 22.546V19l6.687-4.458A9.176 9.176 0 0 1 31.78 13a9.178 9.178 0 0 0 5.735-2.012L40 9l2.321 3.481A10 10 0 0 1 44 18.028v4.518A27.236 27.236 0 0 1 39.849 37" opacity="1" data-original="#fadfb2"></path><path fill="#f5cf88" d="M21.048 30.028A27.221 27.221 0 0 1 20 22.546V22h-1.3a2.7 2.7 0 0 0-2.7 2.7 2.7 2.7 0 0 0 1.014 2.109l4.034 3.217zM43 30l3.986-3.189A2.7 2.7 0 0 0 48 24.7a2.7 2.7 0 0 0-2.7-2.7H44v.546a27.219 27.219 0 0 1-1.037 7.444z" opacity="1" data-original="#f5cf88"></path><path fill="#976947" d="m44 22 2.711-7.455a9.348 9.348 0 0 0-.243-6.992A9.35 9.35 0 0 0 37.924 2h-8.49A32.9 32.9 0 0 0 12 7l2.411.8a3.567 3.567 0 0 1 2.189 4.713 3.571 3.571 0 0 0 .121 2.92L20 22v-3l6.687-4.458A9.176 9.176 0 0 1 31.78 13a9.178 9.178 0 0 0 5.735-2.012L40 9l2.321 3.481A10 10 0 0 1 44 18.028z" opacity="1" data-original="#976947"></path><path fill="#f2f0eb" d="M24 22h6v4a2 2 0 0 1-2 2h-2a2 2 0 0 1-2-2v-4zM34 22h6v4a2 2 0 0 1-2 2h-2a2 2 0 0 1-2-2v-4z" opacity="1" data-original="#f2f0eb"></path><path fill="#a8b0bc" d="M30 23h4v2h-4z" opacity="1" data-original="#a8b0bc"></path><path fill="#d5cec2" d="M10 62V41a4 4 0 0 1 4-4h36a4 4 0 0 1 4 4v21" opacity="1" data-original="#d5cec2" class=""></path><circle cx="32" cy="54" r="3" fill="#e7e4dd" opacity="1" data-original="#e7e4dd" class=""></circle><g fill="#c66b60"><path d="m25.292 48.707-4-4a1 1 0 0 1 0-1.415l4-4 1.415 1.415L23.414 44l3.293 3.292zM38.707 48.707l-1.415-1.415L40.585 44l-3.293-3.293 1.415-1.415 4 4a1 1 0 0 1 0 1.415zM28.199 47.407l6-8 1.6 1.2-6 8z" fill="#c66b60" opacity="1" data-original="#c66b60"></path></g><path d="M63 57a13.019 13.019 0 0 0-8-11.994V41a5.005 5.005 0 0 0-5-5h-8.418a28.18 28.18 0 0 0 2.226-5.367l3.8-3.042a3.694 3.694 0 0 0-2.188-6.579l2.228-6.126A10.349 10.349 0 0 0 37.923 1h-8.489a33.87 33.87 0 0 0-17.965 5.151 1 1 0 0 0 .214 1.8l2.411.8a2.569 2.569 0 0 1 1.572 3.39 4.569 4.569 0 0 0 .156 3.738L18.4 21.03a3.689 3.689 0 0 0-2.008 6.562l3.8 3.041A28.187 28.187 0 0 0 22.418 36H14a5.005 5.005 0 0 0-5 5v4.005A13.019 13.019 0 0 0 1 57v5a1 1 0 0 0 1 1h60a1 1 0 0 0 1-1zM40 21h-6a1 1 0 0 0-1 1v1h-2v-1a1 1 0 0 0-1-1h-9v-1.465l6.242-4.162A8.154 8.154 0 0 1 31.779 14a10.217 10.217 0 0 0 6.36-2.231l1.633-1.308 1.716 2.574A8.968 8.968 0 0 1 43 18.027V21zm-1 2v3a1 1 0 0 1-1 1h-2a1 1 0 0 1-1-1v-3zm-10 0v3a1 1 0 0 1-1 1h-2a1 1 0 0 1-1-1v-3zm18 1.7a1.693 1.693 0 0 1-.638 1.329l-1.813 1.45A28.152 28.152 0 0 0 44.983 23h.317a1.7 1.7 0 0 1 1.7 1.7zM17.523 12.883a4.568 4.568 0 0 0-2.8-6.029l-.3-.1A31.863 31.863 0 0 1 29.434 3h8.489a8.349 8.349 0 0 1 7.848 11.2l-.87 2.391a10.969 10.969 0 0 0-1.749-4.669l-2.321-3.478a1 1 0 0 0-.678-.433 1.008 1.008 0 0 0-.778.207l-2.485 1.989A8.215 8.215 0 0 1 31.779 12a10.149 10.149 0 0 0-5.647 1.709l-6.687 4.458a.961.961 0 0 0-.17.147l-1.665-3.329a2.573 2.573 0 0 1-.087-2.102zm.115 13.147A1.7 1.7 0 0 1 18.7 23h.314a28.386 28.386 0 0 0 .435 4.48zM21.015 23H23v3a3 3 0 0 0 3 3h2a3 3 0 0 0 3-3v-1h2v1a3 3 0 0 0 3 3h2a3 3 0 0 0 3-3v-3h1.984a26.2 26.2 0 0 1-3.71 13H24.726a26.2 26.2 0 0 1-3.711-13zM14 38h36a3 3 0 0 1 3 3v20H11V41a3 3 0 0 1 3-3zM3 57a11.019 11.019 0 0 1 6-9.793V61H3zm58 4h-6V47.206A11.02 11.02 0 0 1 61 57z" fill="#000000" opacity="1" data-original="#000000" class=""></path><path d="M32 58a4 4 0 1 0-4-4 4 4 0 0 0 4 4zm0-6a2 2 0 1 1-2 2 2 2 0 0 1 2-2zM25.292 48.707l1.415-1.415L23.414 44l3.293-3.293-1.415-1.415-4 4a1 1 0 0 0 0 1.415zM38.707 48.707l4-4a1 1 0 0 0 0-1.415l-4-4-1.415 1.415L40.585 44l-3.293 3.292zM28.199 47.407l6-8 1.6 1.2-6 8z" fill="#000000" opacity="1" data-original="#000000" class=""></path></g></svg>